# xmcd CD database file generated by OrangeCD 5.2
#
# Track frame offsets:
#	150
#	3110
#	23225
#	44475
#	67200
#	87510
#	111425
#	113775
#	131880
#	153140
#	172755
#	191220
#	211665
#
# Disc length: 3061 seconds
#
# Revision: 1
# Processed by: cddbd v1.5.1PL0 Copyright (c) Steve Scherf et al.
# Submitted via: OrangeCD 5.2
#
DISCID=af0bf30d
DTITLE=98 Degrees - 98 Degrees
DYEAR=1998
DGENRE=Pop
TTITLE0=Intro
TTITLE1=Come And Get It
TTITLE2=Invisible Man
TTITLE3=Was It Something I Didn't Say
TTITLE4=Take My Breath Away
TTITLE5=Hand In Hand
TTITLE6=Intermood
TTITLE7=Dreaming
TTITLE8=Heaven's Missing An Angel
TTITLE9=I Wasn't Over You
TTITLE10=Completely
TTITLE11=Don't Stop The Love
TTITLE12=I Wanna Love You
EXTD=
EXTT0=
EXTT1=
EXTT2=
EXTT3=
EXTT4=
EXTT5=
EXTT6=
EXTT7=
EXTT8=
EXTT9=
EXTT10=
EXTT11=
EXTT12=
PLAYORDER=
